<svg xmlns="http://www.w3.org/2000/svg" viewBox="0 0 178.87 66.19"><title>Middel 1</title><g id="Laag_2" data-name="Laag 2"><g id="Laag_1-2" data-name="Laag 1"><path d="M178.06,15.42c.27,4.66.65,9.31.77,14a99.52,99.52,0,0,1-.3,11.32,8.78,8.78,0,0,1-2,4.15c-2.08,2.7-4.47,5.31-6.67,8a1.66,1.66,0,0,0-.3,1.18,24.13,24.13,0,0,1,.19,3.88c-.06.53-.88,1.23-1.65,1.47-2.87.92-5.76,2.1-8.83,2.42-6.35.66-12.81.95-19.25,1.17-7.56.26-15.15.28-22.73.37-1.61,0-3.22-.2-4.83-.16-5,.13-9.89.33-14.84.5-1.67.06-3.35.16-5,.2-10.55.27-21.11.49-31.66.82-6.39.19-12.76.67-19.15.79s-12.52.28-18.78.63A70.34,70.34,0,0,1,4.08,64.37c-1.94-.43-2.48-1.48-2.58-2.66Q1,55.94.59,50.16C.37,47.42,0,44.68,0,41.93c0-2.26.63-4.52.71-6.78.13-3.54-.07-7.09.07-10.63s.43-7,.84-10.49c.23-2,2-3.38,5-4.23a14.18,14.18,0,0,0,4.12-1.88c3-2.09,5.68-4.32,8.56-6.46A4.8,4.8,0,0,1,21.16.79a67.57,67.57,0,0,1,15-.64c2.45.15,5-.14,7.44-.08Q57,.39,70.42.82c5.84.18,11.67.46,17.51.62q9.87.28,19.76.44c12.74.21,25.49.26,38.21.61,7.5.21,15,.67,22.44,1.4,7.83.76,9.62,2.36,9.77,7.47,0,1.35,0,2.71,0,4.06ZM41.41,50.58c10.09-.4,18.41-.7,26.72-1q21-.87,42.05-1.79c13.46-.56,26.93-1.09,40.4-1.67,5.51-.23,11-.47,16.51-.87A31.62,31.62,0,0,0,173.64,44c1.06-.32,2.3-1.23,2.37-1.91a130.57,130.57,0,0,0,.86-13.95c0-5.42-.55-10.83-.89-16.24-.06-1-.24-2-.36-3-.21-1.73-1.66-2.83-4.27-3.18-4.07-.54-8.15-1.15-12.27-1.4-6.18-.37-12.41-.46-18.62-.66-7.76-.24-15.52-.56-23.29-.7-7.26-.14-14.54-.05-21.81-.13-5.6-.07-11.19-.16-16.78-.39-9.12-.37-18.21-1.1-27.34-1.26-8.44-.15-16.9.24-25.35.42-3.26.07-4.46.88-4.69,3a9.77,9.77,0,0,0,.06,1.08c0,1.54,0,3.09-.06,4.64-.19,3.12-.46,6.24-.71,9.35,0,.64-.15,1.27-.18,1.91-.21,5.21-.73,10.42-.51,15.63.17,3.88,1.28,7.74,2.05,11.6.07.35.65.75,1.16.92a8.45,8.45,0,0,0,2.49.46C31.38,50.37,37.27,50.49,41.41,50.58ZM173.6,46.16l-.5-.27c-1.82.19-3.62.47-5.45.56-6.24.31-12.48.55-18.71.82L118.67,48.6q-18.51.8-37,1.59c-11.1.45-22.2,1-33.32,1.27-8.79.25-17.61.88-26.42-.18a5.33,5.33,0,0,0-3.22,1c-3.62,2.92-7,6-10.57,8.92-.69.59-.42.85.57,1a15.44,15.44,0,0,0,1.65.19c6.69.12,13.37.33,20.06.29,7.58,0,15.15-.24,22.72-.5,7-.24,14-.75,21.07-1,13.65-.46,27.3-.94,41-1.19s26.88-1.36,40.27-2.41c5-.39,9.23-1.32,11.77-4.39C169.17,50.82,171.45,48.51,173.6,46.16ZM5.73,60.74l1.06.41A6.65,6.65,0,0,1,7.67,60c3.26-2.9,6.56-5.78,9.84-8.67a5.26,5.26,0,0,1,1.15-.93,1.51,1.51,0,0,0,1-2,41.58,41.58,0,0,1-1.35-6.62c-.31-4.85-.43-9.7-.43-14.56,0-3.81.25-7.63.48-11.45.17-2.69.55-5.38.7-8.08a21.92,21.92,0,0,0-.4-3.57,4.11,4.11,0,0,0-.83.24C14.41,7.19,10.89,10,7.61,13a4.61,4.61,0,0,0-1.34,2.79c-.38,2.25-.47,4.52-.76,6.78-.43,3.36-1.1,6.7-1.34,10.07a80.37,80.37,0,0,0,.08,8.78c.16,4.38.35,8.75.64,13.13C5,56.59,5.44,58.66,5.73,60.74Z"/><path d="M24.79,37.86v4.6c-.47-.3-1.1-.51-1.13-.76-.17-1.31-.84-2.69.51-3.89Z"/><path d="M168.78,13l-1.66-2.74a7.83,7.83,0,0,1,1.87.54C169.83,11.41,170.18,12.13,168.78,13Z"/><path d="M169.19,18.18l1.57-1.84C171.66,17.65,171.39,18,169.19,18.18Z"/><path d="M167.12,39.7l-2.19,1.47-.63-.34,2-1.58Z"/><path d="M8.8,47.89l.71-.74a3.68,3.68,0,0,1,1,.58,11.37,11.37,0,0,1,1.2,2c.1.22-.18.52-.28.79-.38-.12-1-.18-1.11-.37C9.72,49.43,9.31,48.69,8.8,47.89Z"/><path d="M15.42,48.9c-.38-.38-1-.73-1.09-1.12s.38-1,.6-1.51c.4.16,1.1.3,1.13.49a7.78,7.78,0,0,1-.1,1.86Z"/></g></g></svg>