<svg xmlns="http://www.w3.org/2000/svg" viewBox="0 0 171.08 194.1"><defs><style>.cls-1{fill:#1d1d1b;}</style></defs><title>Middel 1</title><g id="Laag_2" data-name="Laag 2"><g id="Laag_1-2" data-name="Laag 1"><path class="cls-1" d="M169.61,67.1a1.93,1.93,0,0,1-2.55-.85,4,4,0,0,0-2.83-2.82c-.56.56-.28,1.13,0,1.69,3.4,4.25,2.83,9.34,3.4,14.43,0,3.39.28,6.79-.57,9.9A45.36,45.36,0,0,1,160,105a117.28,117.28,0,0,1-11.31,12.45c-2,2-2.55,4.81-4.53,6.79-.85.84.29,1.69,1.13,2a7.07,7.07,0,0,1,3.4,6.22,54.94,54.94,0,0,1,0,6.79c0,2.83-2.27,4.52-3.68,6.78a32.47,32.47,0,0,1-11,10.47c-4.52,2.54-9.62,4.24-14.71,1.41-2.26-1.13-2.26-.84-2.83,1.13-2,8.21-.84,16.13.29,24a60,60,0,0,0,1.69,6.78c-.84,1.14-1.41,2.27-2,3.12-2.82-8.77-3.39-17.82-3.67-27.16,0-3.11.85-5.94,1.13-9.05,0-.85,0-1.7-.85-2a19.68,19.68,0,0,1-3.68-3.11c-2.83-2.54-6.22-1.7-7.63,1.13-2.27,3.68-5.66,6.51-6.51,11a.9.9,0,0,1-.85.85c-1.41.85-2.26,2.26-3.39,3.11-1.13,1.13-2,2.27-3.4,2.55a32.81,32.81,0,0,0-7.35,2.83c-4,2.26-8.2,3.11-12.16,4.52-3.11,1.42-6.79,1.7-10.18,2.83-1.13.28-1.7.57-1.42,2,.57,3.39,2.83,6.22,4.81,8.77.28.56,1.13,1.13.28,1.7-.56.56-1.13,0-1.41-.29a20,20,0,0,1-6.22-8.48c-1.13-2.55-2.55-2.83-4.53-2.55-1.41,0-2.83.28-4,.28-.56,0-.85,0-1.13.29a15.27,15.27,0,0,0-2.83,5.65,39.08,39.08,0,0,0-1.69,6.23,21.18,21.18,0,0,1-3.12-2.27c.29,0-1.41-.56.29-.56,1.13-.28,1.13-2,1.13-3.11-.28-2.27,1.7-3.4,2.26-5.09.28-1.14.57-1.7-.85-2.27-3.11-1.13-5.65-3.11-8.2-4.8-4.24-3.12-6.79-7.08-9.62-10.75s-4-7.92-5.94-11.88C13.48,148,10.65,142.9,8.11,138.1,5,132.16,2.17,126.22,1.32,119.43,1,116.32.47,113.21.19,110.38c-.85-4.81,1.41-9,2-13.3A52.91,52.91,0,0,1,5.85,85.2l2.54-5.37c2.26-3.68,3.39-7.64,5.94-11,.57-.85,1.41-2,0-2.83v-.85c1.7-4,2.26-7.92,3.68-11.59,1.69-4.25,3.11-8.49,5.37-12.45.57-.85,2-2.26-.85-2.26-1.13,0-1.69-1.13-1.41-2.26a8.76,8.76,0,0,1,2.54-5.09c2.55-2.27,4.81-5.1,7.36-7.36,1.13-.85,2.26-2,3.67-2,.29-1.13-.56-1.7-.84-2.26-1.14-3.39,0-4.81,3.39-4.53,1.13,0,2.55.29,2.83-.56.56-.85-1.13-1.42-2-2.26C36.39,11.1,35.54,8.84,35,6.58a1,1,0,0,1,.56-1.42c1.42-.28,2.55-1.13,3.68,0,1.41,1.42,3.11,2.26,4.24,4,.29.57.57,1.42,1.42,1.42.56-.57.28-.85,0-1.42A9.46,9.46,0,0,1,44,1.77c.56-1.42,1.13-2,2.54-1.7a26.42,26.42,0,0,1,8.77,3.68c1.42.85,3.11,1.13,4.81,2a17.18,17.18,0,0,1,3.68,2.54c.28.29.56.85,1.13.29.28-.29,0-.85-.28-1.14a3.88,3.88,0,0,1-.29-3.11c0-1.69.57-2.26,2.27-2.26a14.59,14.59,0,0,1,8.48,2c2.26,1.13,4.53,2.55,6.51,3.11,3.11.85,6.5,2,9.89.28,2-1.13,4.81-.84,7.08-.56,6.22.85,12.44,2.54,17.81,5.94,5.1,3.39,10.19,6.79,14.43,11.59.85.85,1.13.57,1.7-.56.28-.57.28-1.42.56-2.26.57-1.7,2-1.42,2.55-.29,4.24,5.94,8.48,11.6,9.61,18.95a46.13,46.13,0,0,0,1.13,6.51c.29,1.13.57,1.41,1.7.85,3.68-1.7,7.92-2.27,11.88-2.83a5,5,0,0,1,4,2c1.42,1.13,1.13,2.26-.85,2.83-1.13.28-2,.56-2.26,1.41s.85,1.13,1.41,1.7a30.62,30.62,0,0,0,4.53,4c2.54,2.26,3.11,5.09,4.24,8.2A1.94,1.94,0,0,1,169.61,67.1ZM144.15,129c-2.83-2.26-5.65-2.54-9.05-2-2,.57-3.39,1.7-5.37,2a40.75,40.75,0,0,0-12.45,4.25c-1.41.56-3.67-.29-3.67-1.7-.29-2.83-2.55-4.81-1.7-7.64.56-2.26-.85-4.81.85-6.78a31.19,31.19,0,0,1,3.67-2.83c1.42-1.13,3.12-2,4-3.68,3.4-5.94,8.21-11,10.47-17.82,1.41-3.68,3.39-7.35,4.24-11,1.13-4.52,3.11-9,2-13.86,0-.56-.56-1.13-.28-2,.85-3.68-.28-7.07-1.13-10.75,0-.56-.29-1.13-.85-.84-1.7.28-2.26-.85-2.55-2C130,47.87,126.05,45,122.09,41.93c-2-1.41-4.24-2-6.22-3.11a53.56,53.56,0,0,0-11.6-2.55c-3.11-.28-6.22.29-9,.29-3.11.28-6.5,0-9.61.56a64.08,64.08,0,0,1-14.71.29c-2-.29-4.24-.85-4.53-3.4,0-1.7-1.13-1.7-2.26-1.41a10.59,10.59,0,0,1-4,1.13A32.78,32.78,0,0,1,49.68,34C48,34,46.57,33.45,46,32c-.28-1.41,1.41-1.41,2.26-2.26h.57c.28-.28.84-.57.84-1.13a1.12,1.12,0,0,0-1.13-.57c-1.69-.56-3.67-.28-5.37-.56-.85,0-1.7-1.42-2.55,0a5.84,5.84,0,0,0-1.69,2.82,33,33,0,0,1-3.4,8.77c-1.69,4-4.24,7.64-6.5,11.32.85.84,2,.56,2.83.84,2.54.57,4.24,2.27,4.24,4.81.28,1.13.28,1.7.56,2.55a2.76,2.76,0,0,1-1.13,3.67c-1.41.85-2.54,0-3.11-1.13-1.13-2.54-3.11-4.24-4.81-5.94a2,2,0,0,0-2.54,1.14c-.57,2.54-2.26,4.8-3.68,6.78-4.52,5.94-7.64,12.73-11.31,19.24-2.55,4.8-3.4,10.18-4.81,15.55-2,7.36-2.26,14.71.28,22.06.57,2.27.57,4.81,1.7,6.79,1.7,3.4,2.83,7.07,4.52,10.18.85,1.42,2,2.55,2.55,4.25.28,1.41.57,2.54,2.55,2.26,1.13-.28,1.41,1.13.84,2.26-1.69,1.7.29,2.83.57,4.24.28.57.57.57,1.13,0a1.09,1.09,0,0,1,2,0c.85,1.14.57,2-.56,2.27-.57.28-1.14.56-.85,1.13s.85.28,1.13,0a1.53,1.53,0,0,1,2.26.56c.57,1.13,0,1.7-.56,2.55-.85.85-1.42,2,.84,2.26a1.73,1.73,0,0,1,1.14,2.55c-.85,1.13,0,1.69.56,2.54.85-.85.85-2.83,2.26-2.26,1.7.85.57,2.26.29,3.11,0,.57-.29,1.13-.57,1.13-.56.57-.56.57,0,1.42,1.41,2,3.39,4,5.09,5.94,1.13,1.69,1.7,1.41,2-.29.28-1.13,1.42-1.69,2-1.41.85,0,1.42,1.13,1.7,2s-.57,1.41-1.42,1.41a4.29,4.29,0,0,0-1.13.85c1.13,1.13,2.27,2.26,4,1.7,0-.57-1.13-1.7.29-2,1.13-.28,2,.28,1.69,1.7-.28,2,1.42,1.13,2.27,1.41,1.41,0,.56-1.13.28-1.7a3.23,3.23,0,0,1,1.7-2.54c.28-.28.84-.57,1.13,0,.56.85.84,1.7,0,2.54-.85,1.42.28,1.7,1.13,1.7,2-.28,4.24,0,5.94-1.41a1.25,1.25,0,0,1,1.41,0c2.26.84,4-.85,5.94-1.42,1.13-.28.28-1.41.57-2l1.69-2a2.17,2.17,0,0,1,2.83-.28c1.13.85-.56,1.41-.56,2.26,0,.57-.57.29-.85.29-.85,0-1.42,0-1.42.84.29.85.85.57,1.42.57.28,0,.56-.28.85-.28,4.81-2.27,10.18-2.27,14.7-5.66-1.69-1.7,0-3.11.85-4.53.29-.56.29-1.69,1.42-1.13.56.29.56,1.13.56,1.7-.56,1.13-.85,2-1.41,3.39a15.17,15.17,0,0,0,6.5-4.24C93,160.16,96.35,154.5,101.16,150c1.7-1.69,3.11-2.82,5.94-2.26a13.54,13.54,0,0,1,5.66,3.11l6.22,4.24c4.53,2.55,8.48,1.42,12.73-.28,4-1.69,6.79-4.81,9.61-8.2,2.83-3.68,5.94-7.35,4.81-12.73-.28-1.69-.28-3.67-2-4.81ZM19.42,112.92A2.25,2.25,0,0,1,18,115.19a2.58,2.58,0,0,0-2.27,1.13c-.56.85-1.13.85-2,.28-1.13-.85-1.13-1.7-.56-2.26a26.83,26.83,0,0,1,2.54-2.83,10.06,10.06,0,0,1,1.7.28C18.57,111.79,19.42,111.79,19.42,112.92Zm0-28.85A12.41,12.41,0,0,1,17.16,81c-.57-1.13-1.42-2.54,1.13-2,1.13.29,1.13-.85,1.41-1.41a3,3,0,0,1,4-.85c.29.28.57.28.29,1.13-.85,1.7-.57,4-2,5.94C21.4,84.64,20.55,85.2,19.42,84.07Zm-.85-21.78c2.27-4.24,4.81-7.35,6.51-11,2-3.67,4.52-7.07,6.5-11C33,37.12,34.69,34,36.39,30.9c.85-1.7.85-4.53,3.68-4.81-.57-.85-1.7,0-2-.85-1.13-1.41-2-.56-3.11-.28-2.55,1.13-4.25,3.68-6.23,5.37-1.69,1.14-2.82,2.83-4.24,4.53a4.59,4.59,0,0,0,3.11-1.41c.85-.57,2-1.14,2.83,0,.85.84.57,1.69-.28,2.54,0,.28-.28.57-.57.85-3.39,4.24-5.37,9-7.35,13.86-1.41,3.11-1.41,6.5-3.39,9.33C18.57,60.32,18.86,61.16,18.57,62.29ZM60.72,138.1c-4.81,1.69-9.62,3.67-14.43,5.65-1.41.57-3.39.28-5.09.57-4-.85-8.2-1.42-11.31-5.09-3.4-4-7.07-7.36-9.34-12.17a1.49,1.49,0,0,0-.56-1.13c-.29-1.13-.29-2,.56-2.54a1.79,1.79,0,0,1,2.27,1.13c.56.85.56,1.7,1.13,2.26.56,1.13.85,2.55,2.54,1.42,1.13-.57,2.55-.29,4-1.14,3.68-2.54,10.75-2.26,13.86.85a17.61,17.61,0,0,1,4,5.09c2.26,3.4,5.66,4.53,9.33,2.83a7.79,7.79,0,0,1,2.27-.85,1.89,1.89,0,0,1,2,1.42C62.13,137.53,61.56,137.81,60.72,138.1Zm-11.6,1.13C47.7,137,46,135,44.59,133c-1.13-1.41-2-3.11-3.67-3.67a11.32,11.32,0,0,0-10.75,1.41c-1.42,1.13-3.39,1.7-.57,4,2.27,2.26,4.53,4.53,7.92,5.66A14,14,0,0,0,49.12,139.23ZM42.61,152a1.25,1.25,0,0,1-1.69.57,1.31,1.31,0,0,0-1.42,0c-3.11,1.7-4.52,1.41-6.22-1.7a2.84,2.84,0,0,0-1.41-1.13,3.56,3.56,0,0,1-2-2.26c0-.57.28-1.13.56-1.13.85-.57,1.7,0,2.26.56,1.7,1.7,4,2.27,6.23,2.83.85.28,1.69.28,2.54.57S42.9,151.11,42.61,152Zm-9.9,14.71a2.59,2.59,0,0,1-.28,1.42c0,.56,0,1.41-1.13,1.41-.85-.28-.85-.85-1.13-1.7v-.85c-.28-1.13,0-2.26,1.13-2.26C32.71,164.4,32.71,165.81,32.71,166.66Zm4-9.61a4,4,0,0,1-.56,1.69c-.28.57-.57.85-1.13.85-.57-.28-.57-.57-.85-1.13,0-.57.56-1.7-.57-2s-1.13,1.13-1.69,1.7l-.29.28c-.85-1.41-1.41-2.83.57-4,1.13-.57,2-1.7,2,.56.28.85.85.29,1.41.29C37,155.06,37.24,155.63,36.67,157.05Zm0,11.59c-.28,1.13-1.41,1.13-2.26,1.7-.85.28-1.13-.28-1.13-.85.28-1.13.28-2.55,1.41-2.83C35.54,166.38,36.11,167.51,36.67,168.64Zm-2-59.68A6,6,0,0,1,37,102.74a24.19,24.19,0,0,0,9-10.18,1.49,1.49,0,0,1,2-1.13c1.41.28,1.13,1.41.56,2-1.13,2.54-1.69,5.09-4,6.79-2,1.41-3.11,3.39-5.09,4.8-2.54,2.27-2,5.38,1.13,7.07.57.29,1.14.29,1.42,1.14.85,1.69.56,2.26-1.7,2.54-1.13-.56-2.54-.28-3.68-2A36.16,36.16,0,0,1,34.69,109ZM167.06,61.73c-1.13-2.83-5.09-5.94-8.2-6.79a28.31,28.31,0,0,0-5.09-.56A1.86,1.86,0,0,1,151.51,53c-.29-1.13.84-1.13,1.41-1.7s1.41-.56,2.26-.84c1.42-.85,3.11-1.14,4.53-2.27a3.84,3.84,0,0,0-2.26-.56c-3.68.85-7.36,1.41-10.47,3.67-.57.57-1.13.85-1.7.29-.84-.29-.84-.85-.56-1.42a7.69,7.69,0,0,0-.57-3.67,41.07,41.07,0,0,0-7.92-20.65c-.28-.57-.56-1.13-1.41-1.13.28,1.41-1.7,2.83,0,4.52.56.57,1.41,1.42.56,2.27-1.13,1.13-1.69,0-2.54-.85a25.26,25.26,0,0,1-4.24-5.09c-1.7-2.27-4.53-3.68-6.79-5.1-4.53-2.82-8.2-7.35-13.86-8.76A54.32,54.32,0,0,0,97.77,9.4c-2.83,0-5.38.85-8.21,1.14A33.5,33.5,0,0,1,74,6.58a17.4,17.4,0,0,0-5.37-2c-1.7-.29-1.7.56-1.7,1.69a6.78,6.78,0,0,0,1.13,2,29.45,29.45,0,0,0,4,4.25c.56.56,1.13.84.56,1.69-.56.57-1.13,1.13-2,.57a7,7,0,0,0-2-1.13c-4-2.27-7.36-5.09-11.6-6.79C54.21,6,52,4.31,49.12,3.46c-.85-.28-1.42-1.13-2.26-.56A2.84,2.84,0,0,0,46,5.44a20.52,20.52,0,0,0,5.65,9.06c.57.28,1.7.84,1.42,1.69-.28,1.13-1.42.57-2.26.57a2.18,2.18,0,0,1-1.42-.57,17,17,0,0,0-6.79-3.39c-.28,0-.28.28-.56.28.56.57.85,1.13,1.7,1.42a25.31,25.31,0,0,1,4.52,3.11c.57.56,1.13,1.13.85,1.69a1.4,1.4,0,0,1-2,.29c-2.83-2-6.22-1.14-9.33-1.7-.57-.28-1.42-.57-1.7.28a2.21,2.21,0,0,0,.56,2.26A12.81,12.81,0,0,0,43.75,25c4.8.85,9.89,1.41,15-.28.56-.29,1.41-1.13,1.69,0a1.93,1.93,0,0,1-.85,2.54c-.28.29-.84.29-1.41.57a16.61,16.61,0,0,0-6.22,4c5.37,0,9.9-1.42,14.71-2,2.54-.57,4.8-2,7.07-3.11,1.13-.57,1.69,0,2.26.85.28.56,0,2-.57,2-2.54,0-3.39,2.54-5.37,3.11a1.47,1.47,0,0,0-.57,1.13,1.5,1.5,0,0,0,1.14.56,50.17,50.17,0,0,0,13,.29c5.93-.85,11.87-.85,17.81-1.13,6.23,0,11.88,2,17.82,3.67a8.57,8.57,0,0,1,4.25,2.55c1.69,1.7,3.67,3.11,5.65,4.81,2.26,1.69,4,4.24,5.66,6.78.56.85.56,1.42,1.41.57s2.27-.28,2,.28c-.56,1.42.57,2.55.85,4,.57,4.81.57,9.34.85,14.14,0,1.42.85,2.83.28,4.25-1.69,3.39-1.69,7.35-3.11,10.74a92.45,92.45,0,0,1-6.5,15.28,68.35,68.35,0,0,1-11.88,15c-2.55,2.83-5.09,5.65-4,10.18.85,4,2,5.09,5.65,3.39a15,15,0,0,1,4.53-1.69c1.13-.29,3.11,0,2-2.27a2.28,2.28,0,0,1,.28-2.26c1.42-1.41,2.27-3.11,4.53-3.11-.57,1.41-.29,3.39-2,4.53a1,1,0,0,0-.28,1.41,1.27,1.27,0,0,0,1.69,0,13.12,13.12,0,0,1,7.07-1.7c1.13,0,1.7.29,2.83-1.13a169.2,169.2,0,0,1,11.31-13.29,51.59,51.59,0,0,0,8.77-11.88,33.36,33.36,0,0,0,3.4-9.33c.85-4,0-7.64.28-11.32a21.84,21.84,0,0,0-7.07-17.25c-1.13-1.13-2-2.26-.85-3.39.85-1.14,2.55,0,3.11.56C162,59.18,164.8,60,167.06,61.73ZM42.33,166.38c.28.28-2,3.39-2.26,3.39a1.25,1.25,0,0,1-1.13-.85c.56-1.13.85-2.82,2.26-3.39C41.48,165.25,42.33,165.53,42.33,166.38Zm4,3.68c-.28.56,0,2-1.13,2-.85,0-1.13-.85-1.13-1.42.28-.85.56-2,1.7-2.26C46.29,168.36,46.57,169.49,46.29,170.06Zm7.35-.85a3,3,0,0,1-2,3.39c-.56,0-1.41-1.13-1.13-1.41.85-1.42-.56-3.68,1.7-4C53.64,166.94,53.64,168.36,53.64,169.21ZM53.93,22.7c-.29.56-.29,1.41-1.13,1.41-1.14,0-.57-1.41-1.42-2,0-.28.57-.56,1.13-.56S53.93,21.85,53.93,22.7Zm7.92-6.79A1.22,1.22,0,0,1,60.72,17c-1.42.28-2-.85-2.55-1.7a2.53,2.53,0,0,1,.28-2.82c0-.29.29-.29.57-.29a.76.76,0,0,1,.85.85c.28.85.28,2.26,1.69,2.26C61.85,15.34,62.13,15.63,61.85,15.91ZM63,168.36c-.85,1.13-2,2.26-2.26,4a.77.77,0,0,1-1.14.56l-1.41-1.69c1.41-1.13,1.41-3.4,3.39-4.25a.88.88,0,0,0,.57-.28C62.7,167.23,63.54,167.51,63,168.36ZM67.5,17.89c.29.85-.56.56-1.13.56a1.43,1.43,0,0,1-2-1.41c0-.56.29-.85,1.13-.85A2.07,2.07,0,0,1,67.5,17.89Zm4.25,110.87c.56.85.28,2,.56,3.11a2.13,2.13,0,0,1-1.41,2.27c-1.42,0-1.13-1.14-1.13-2a8.8,8.8,0,0,1-.85-2.55c-.57-1.13-1.13-2.26.28-2.83C70.33,126.5,71.46,127.63,71.75,128.76Zm0,38.18c-.29,1.14-.29,2.27-1.7,2.27-.85.28-1.7,0-1.41-.85.56-1.13.56-2.83,2.26-3.11C71.75,165,71.46,166.38,71.75,166.94Zm3.67-54.3c-.85-.28-1.41-.28-1.69.28-.85.57-1.13.57-1.7-.28-.28-.85-.28-1.7.56-2a7.17,7.17,0,0,1,3.4-.57c.56,0,1.7.57,1.41,1.42A1.61,1.61,0,0,1,75.42,112.64Zm-2.54,57.42,2.54-1.42C74.86,170.06,74.57,170.62,72.88,170.06Zm6.22-9.9c1.41,2,.85,5.65-.57,6.5a.7.7,0,0,1-1.13-.28c-.85-.85-1.13-1.7-.28-2.55A4.42,4.42,0,0,0,79.1,160.16ZM89.56,30.33c-.28.57-1.13.57-1.69.57-1.42-.28-2.26.57-3.68.57-.85-.29-1.7,0-1.7-1.14,0-.56.57-.84,1.42-.84a16.11,16.11,0,0,0,3.39-1.14c.85-.28,1.42.57,2,.85C89.56,29.2,89.56,29.77,89.56,30.33ZM86.74,139.51a3.92,3.92,0,0,0-.85,2.55c0,1.13-.28,2.26-1.7,2-1.41,0-1.41-1.13-1.41-2.26v-.85c.28-1.69.28-3.39.56-4.81,0-.56.29-1.69,1.13-1.41.57,0,1.7-.28,2,.57C86.74,136.68,87.87,137.81,86.74,139.51Zm3.11,20.08a5.43,5.43,0,0,1-2,3.11c-.57.28-.85.57-1.42,0a1.25,1.25,0,0,1-.28-1.41c.57-.85.85-2,1.7-2.55.28-.56.56-1.41,1.41-1.13A1.62,1.62,0,0,1,89.85,159.59Zm4.52-54c1.13.85,0,1.7-.56,2.26-1.7,1.13-3.4.28-5.09.85-1.7.85-1.42-1.13-2-1.7-.85-.56,0-1.41.56-1.69,1.13-.57,1.13-2,1.7-2.83.85-.85,1.41-2,2.54-2.55.85,0,2-.56,2.27.29.28,1.13,2,1.69.56,3.11A1.22,1.22,0,0,0,94.37,105.57Zm3.11-87.12c.29.57.57,1.42-.56,1.7-1.13.57-1.13-.28-1.13-1.13a1.64,1.64,0,0,0-1.7-1.7c-.85-.28-1.7-.28-2.55-.56s-2.82.85-2.82-1.13c0-1.14,2-.57,2.82-.85C95.22,14.78,96.92,15.91,97.48,18.45ZM94.66,154.78c0,.85-.29,2.27-1.14,2.27-1.69-.29-1.13-2-1.41-3.12-.57-.84.28-.84.85-.84A1.33,1.33,0,0,1,94.66,154.78Zm3.67-78.91-2.54,2c-1.13.57-2,.85-3.11,0A2.21,2.21,0,0,1,93,74.74a25.8,25.8,0,0,1,2.83-2.55c1.41-.84,2.83-1.41,4-2.26,1.69-.85,5.94,1.42,7.07,3.68a8.94,8.94,0,0,0,1.41,2.83c.57.85.85,1.41.28,2.26a2.11,2.11,0,0,1-2.26,1.41c-1.69,0-2.54-1.13-3.11-2.82C102.29,74.46,100.88,74.17,98.33,75.87ZM98.9,148c0,1.14,0,2.27-1.13,2.83-.29,0-1.7-2.83-1.7-3.67.28-.85.85-.57,1.7-.57S99.18,146.86,98.9,148Zm2.83-7.63c.28.85,1.13,2,.56,3.11,0,.85-.56.85-1.13,1.13-.85,0-.85-.57-.85-1.13-.28-.85-.28-2-.56-2.83,0-.85,0-1.7.85-2C101.44,138.66,101.44,139.51,101.73,140.36ZM100.6,16.19a.83.83,0,0,1-.57-1.13c.28-.56.85-.56,1.41-.28,1.42,0,2.83,1.7,2.83,3.39,0,.57,0,1.13-.85,1.42s-.84-.85-.84-1.14A4,4,0,0,0,100.6,16.19ZM104,30.05l-.85.85c-.56.85-1.41.57-2.26.28-.28-.28-.57-.28-.57-.85,0-.84.85-.84,1.42-1.13a3,3,0,0,1,1.69-.56C104,28.64,104.84,28.92,104,30.05Zm2,106.35a8.47,8.47,0,0,0,.56,2.83c0,.56,0,1.41-.84,1.41a2.86,2.86,0,0,1-1.42-1.13c-.56-.85-.28-2-.56-2.83s-1.42-2-.29-2.54C104.84,133.85,106,135.83,106,136.4Zm4-1.42c.28,1.13.28,2-.85,2-1.13.29-.28-.85-.57-1.13-1.69-2-.28-4.52-1.41-6.5a1,1,0,0,1,.85-1.42c.85-.28.85.57,1.13.85C109.93,131,109.65,133.29,109.93,135Zm26-4.52a10.15,10.15,0,0,1,2.83.56c1.13.29,2.54.57,2,2-.28.85-1.7,1.14-2.83.57a4,4,0,0,0-2.55-.28c-1.69.28-2,.85-1.41,2.54.28,1.42,1.7,2.83.28,4.53-.28.28-.56,1.13-1.41.56-.57-.56-1.42-.56-.85-1.69.57-1.7-1.13-2.83-1.41-4.53-.29-.56-1.13,0-1.42.28l-8.48,4.25c-1.13.84-2.55,1.13-2.83.56-.85-1.13.56-2.26,1.41-2.83,1.13-.85,2.27-1.13,3.4-2C125.77,133.29,133.41,130.46,136,130.46Zm-16.69-11.32c.85,0,1.7.85,1.13,1.14-.56,1.13.57,2.82-1.13,3.11-1.41,0-.85-1.42-1.41-2,.28-.85.28-2,1.41-2.27Zm7.07-1.41c-.84,1.13.29,2.83-1.13,3.39-.85,0-1.41-.84-1.69-1.69,0-1.42.84-2,1.69-2C126.05,117.17,126.62,117.45,126.33,117.73Zm4.81-5.37c-.56.85-.28,2.26-1.69,2.54-.29,0-.85-.85-.85-1.41.28-.85,0-2.26,1.41-2.55C130.86,110.66,131.14,111.51,131.14,112.36Zm5.66-.29c1.7,1.7.28,2.83,0,4-.28.57-.57.29-.57,0-.56-.28-1.13-.56-.85-1.41C135.38,113.49,136.52,113.21,136.8,112.07Zm17.82-14.7c0,1.13-2.27,3.11-3.11,2.83-.29,0-.57-.29-.29-.57.57-1.13.85-2.26,2-2.83C154.05,96.52,154.33,96.8,154.62,97.37Z"/></g></g></svg>