<svg xmlns="http://www.w3.org/2000/svg" viewBox="0 0 179.76 233.65"><defs><style>.cls-1{fill:#1d1d1b;}</style></defs><title>Middel 2</title><g id="Laag_2" data-name="Laag 2"><g id="Laag_1-2" data-name="Laag 1"><path class="cls-1" d="M179,89.42c-.28,4.52-.28,9-1.41,13.29-.28,1.42,1.13,1.42,1.13,2.83-.85,6.22-1.13,12.45-3.68,18.39-.28.28-.56,1.13-1.41,1.13a1.87,1.87,0,0,1-1.41-1.13c-.29-.29-.29-.57-.29-1.14-.28-.56-.85-1.69-1.69-1.41-.85,0-1.14.85-.57,2a3.63,3.63,0,0,1-.28,1.7c-2,4-3.4,8.2-5.94,11.88-1.7,2.26-3.11,2.82-5.38,2.54-1.13-.28-1.41,0-2,.85-1.13,1.7-2.83,3.11-4.24,4.81a1.26,1.26,0,0,1-2,.28c-1.13-.56-1.41.85-1.7,1.42-2,5.93-5.94,10.74-9.9,15.55a1.51,1.51,0,0,0-.84,1.13c-.29,1.42-1.13,1.7-2,1.13-1.42-.56-2.27.29-3.11,1.14-.29.28-.57.84-.85.84-5.09,2-7.64,5.66-7.92,11.32-.29,3.11-1.13,6.22-1.7,9.33-.28,1.13-.57,2,1.13,2.26a3.45,3.45,0,0,1,2,2c1.42,2.27,4.24,3.12,5.09,5.94,0,.57.57.85,1.13.85,1.7.28,1.7,1.13,1.14,2.26-.29.57-.29,1.14.28,1.42,2.26,1.41,4.52,3.39,6.79,5.09,4.24,3.39,8.76,5.94,13,9.62l.84.84a17.24,17.24,0,0,0-2.26,1.7,28,28,0,0,0-4.24-4,148.67,148.67,0,0,1-13.29-10.18c-.57-.57-2.27-1.7-2.83-.85-1.13,1.7-2.55,2.83-3.4,5.09a16.77,16.77,0,0,1-3.39,5.66,57.43,57.43,0,0,1-9.62,8.77c-4.24,2.54-7.92,6.22-13,7.07A59.72,59.72,0,0,0,94.11,232c-3.67.85-7.63.57-11.31,1.41s-7.35-.56-10.75-1.13c-9.9-.85-18.67-4-26.3-10.75-1.42-1.41-2.55-3.39-5.09-3.11h-.57c-.85-.85,0-1.41-.85-2.26h1.42c.56,0,.84,0,1.13-.28,1.13-2.27,3.39-3.4,4.81-5.38A17.61,17.61,0,0,1,50,207.36a2.54,2.54,0,0,1,3.11,0c.85.57,1.41.29,1.7-.85A28,28,0,0,0,56.21,202c.28-.57.28-1.42-.56-1.42-.57,0-1.7-.56-2,.57s-.85,1.7-1.7,1.41c-1.13-.28-1.41-.84-.57-2,.57-.84-.56-1.13-1.13-1.41a1,1,0,0,0-1.41.57c-.28.28.28,1.41-.85,1.13a1.8,1.8,0,0,1-1.41-1.7c0-.85,0-1.41-.85-1.7s-1.42-.28-1.7.57a.83.83,0,0,1-1.13.56,2.14,2.14,0,0,1-.57-1.13c.57-1.13-.28-1.41-1.13-2a40.58,40.58,0,0,1-12.16-15.27,87.79,87.79,0,0,1-4.81-8.77,47.34,47.34,0,0,1-3.39-10.75,10.65,10.65,0,0,0-1.13-2.54,12.09,12.09,0,0,1-1.7-5.09c-.28-4.24-2-8.2-2.83-12.45a47.6,47.6,0,0,1-.56-8.76c0-2-.57-4,0-5.66,0-.28,0-.57-.29-.57-3.39-1.13-2.26-4.52-3.39-6.79-.57-1.41-1.42-2.54-2-3.67-2.83-7.36-4.24-15-3.11-22.91.56-3.68.85-7.36,1.69-10.75,0-.28,0-1.13-.28-1.13-.28-.57-.85,0-1.13.28-.57.57-1.41.85-2,1.42-.85.56-2,1.13-3.11.28a2.69,2.69,0,0,1-.57-3.68,40.58,40.58,0,0,1,5.66-7.92c.85-.85,1.7-1.41,2-2.83a4.63,4.63,0,0,0-2.83.29,4.87,4.87,0,0,1-2.83,0c-.85-.29-2-.29-2.26-2,0-1.13.85-1.7,1.7-2.55a76.82,76.82,0,0,1,11-4.81c5.09-1.69,6.79-5.65,6.79-12.16a25.45,25.45,0,0,1,3.39-13.57,116.14,116.14,0,0,1,8.2-11.32A31,31,0,0,1,46,11.92c6.22-2,12.44-3.11,19-2,2.55.57,5.09,2,7.64.85a.55.55,0,0,1,.85.28,2.14,2.14,0,0,0,3.39.29c4.24-3.68,9.62-4.25,14.71-5.94,4.52-1.42,9.05-2.55,13.29-3.68C108.25.61,111.65.61,115,.33c6.51-.57,13.3-.57,19.8,1.41,3.39,1.13,6.51,3.39,9.62,4.81a53.38,53.38,0,0,1,19.23,13.29,34.57,34.57,0,0,1,5.66,8.49c1.41,3.39,2.54,6.5,4,9.61a91.23,91.23,0,0,1,4.24,17.82c.85,5.09,1.13,10.75,1.7,15.84.28,4.53,1.13,9.05-.29,13.29C178.68,86.31,179.25,88,179,89.42Zm-162.06-2a74.41,74.41,0,0,1,2-10.46,33.76,33.76,0,0,1,2.26-7.64,4.83,4.83,0,0,0,.28-4A24.49,24.49,0,0,1,20,59.16c0-1.7-.57-1.7-2-.85A15.1,15.1,0,0,1,10.68,62a11.82,11.82,0,0,0-6.51,3.68H5c3.68-.56,7.07-2.26,10.75-2.83a2.52,2.52,0,0,1,2.54.57c.29.85-.85,1.41-1.41,2-2.26,1.7-4.53,3.11-6.79,5.09s-4.53,4.24-5.66,7.35c-.56.29-1.13.29-.85,1.13.29-.28.85-.56.85-1.13.85.29,1.42-.28,2-.84,1.42-2,2.83-3.68,4.25-5.38,1.13-1.41,2.26-.28,3.11-.56a2.13,2.13,0,0,1-.29,2.26,11.06,11.06,0,0,0-1.69,3.11c-1.42,3.39-2,7.35-2.55,11a78.52,78.52,0,0,0-.85,7.92A22.41,22.41,0,0,0,9.26,105c.85,5.09,2,9.61,4.81,14.14,1.13-6.79.57-13.3,1.13-20.08C15.48,95.36,16.33,91.4,16.9,87.44Zm107.76,55.44c.28-1.14.28-2.55-1.42-2.83-4.24-.85-4.8-2.55-3.39-5.09.57,0,1.41,0,1.7.56,2.83,3.4,6.22,2,9.61,1.42a2.46,2.46,0,0,0,1.7-.85c1.7-2.55,4.24-4.53,5.37-7.36a47.44,47.44,0,0,0,3.4-10.74c.28-.57.28-1.14-.57-1.14-3.11-.28-5.09,1.42-5.37,4.25V122c-1.7,3.39-2.83,6.78-6.51,8.48-1.13.57-2.26.28-3.11.85-1.13.57-1.69.57-2.54-.28s-.57-1.7,0-2.55l1.13-.28c3.11.28,5.37-.57,6.79-3.68.56-1.41.85-2.83,1.41-4,1.13-2-.28-2-1.41-2-1.7.28-3.11,1.42-4.53,2-1.13-.28-2.26.28-3.39.28-1.42.29-2.83.85-3.68.57-5.66-2.26-8.2-7.07-9.33-12.44-.57-2.27-1.42-2.83-3.4-2-1.41.56-3.11,1.13-4.52.56-4.53-2-9.34-3.39-13.3-6.5-.28.56-.28,1.69-1.41,1.69a4.15,4.15,0,0,1-4-1.41,19,19,0,0,0-3.68-3.11c-2.54-1.7-5.65-2.55-7.92-4.53-2.82-2.26-4.8-5.09-7.07-7.63a1.29,1.29,0,0,0,0,1.41,40.15,40.15,0,0,0,8.21,11c.56.57,1.41,1.13.56,2a4,4,0,0,1-4,2.26c-4.52-1.13-8.48-3.67-12.16-6.79a77.13,77.13,0,0,1-6.22-7.35,11.86,11.86,0,0,0,2.54,8.2c2.55,3.4,5.94,6.23,8.77,9.34,1.7,1.69,1.13,3.39-.85,4a7.9,7.9,0,0,1-2.54.28c-3.68,0-6.23-2-8.77-3.39a24.7,24.7,0,0,1-7.92-7.36c-3.11-4.24-6.79-7.92-9.33-12.16-2-3.68-4.53-6.79-6.23-10.46-1.13-2.27-2.83-4.25-4.24-7.08-1.13,5.38-1.7,10.19-2.83,15-1.13,3.4-.56,7.08-2,10.47,0,.28,0,1.13.57,1.41a.6.6,0,0,0,.56-.56c.85-1.7,2.83-1.7,4.25-2.83s3.67-1.13,5.37-1.7,2.83-.56,3.39.85-.28,2.55-1.41,3.39c-2.26,1.7-5.09,2.27-7.35,4-1.42.85-2.83,2-4.25,2.27s-1.69.85-1.69,2c.56,5.94-.85,11.88-.57,18.1v13c0,6.22,3.11,11.88,3.39,18.1,0,.57.29.85.57,1.41a11.23,11.23,0,0,1,2,5.38,106.2,106.2,0,0,0,9.05,20.93l.85.85a37.09,37.09,0,0,0,7.64,9.9c1.41,1.13,2.54,2.83,4.24.56.28-.28,1.41-.28,2-.28a1,1,0,0,0,.28.57c-.85,2.82-.85,2.82,2,2,.85-.29,1.13.28,1.42.84a1.84,1.84,0,0,0,3.39.57c.28-.28.56-.85,1.13-.57.57,0,1.13.57.85,1.13,0,.57-.28,1.42.56,1.7l4,.85c1.14.28,1.42-.28,1.14-1.41,0-.57,0-1.42,1.13-1.42a1.34,1.34,0,0,1,1.41,1.42c-.28,2.54,1.42,1.69,2.55,1.41,1.13,0,2.83,0,2-2.26a1.55,1.55,0,0,1,.85-2,1.78,1.78,0,0,1,1.69,1.41c0,2.26,1.7,1.42,2.55.85.56-.85,1.41-.85,2.26-1.13,1.13-.57,2.83-.85,2.83-2a3.15,3.15,0,0,1,.85-2.83c.85,2,2,1.42,3.39.57a7.62,7.62,0,0,0,1.7-1.42,67,67,0,0,0,9.9-10.18c2-2.26,3.67-4.53,5.65-7.07.57-.57,1.14-1.7.29-1.7-2-.56-1.7-2.83-3.11-3.67-.29-.85.56-.85,1.13-.85s1.41,0,1.41,1.13a3.74,3.74,0,0,0,1.7,2.54c.56-1.69.85-3.39,1.41-5.09a1.89,1.89,0,0,1,2-1.41c.85,0,1.13.56.85,1.41a5.61,5.61,0,0,1-.28,2.27c-2,6.22-6.22,11.31-10.47,16.12-.85,1.13-2.26,2-2.26,3.67-.28.29-.85.29-1.13.57-3.68,3.11-7.35,6.79-11.88,9.05-.85.28-.28.85-.28,1.41.56,2,2.26,2.27,3.11,3.4a.87.87,0,0,1,.28.56c-.28.85-1.41,0-1.7.85h-.56c-2.55-.56-2.83-2.83-3.68-4.81-.28,1.42,0,2.27-2,1.7-1.41-.28-2.83.85-4.24.57-.57,0-.57.85-.57,1.13.57.85.29,2-.56,2-.57.28-1.42-.28-1.7-1.13-.56-1.7-1.7-.29-2.83-.57-.85-.28-.85.28-.56.85a1.34,1.34,0,0,1-1.42,1.41,1.22,1.22,0,0,1-1.13-1.13c.28-1.69-.85-1.13-1.7-1.13-.56-.28-1.13-.56-1.69.57a34.22,34.22,0,0,0-1.42,5.09c-.28,1.7.29,2.54,2.27,2.83.56,1.41,2,2.26,3.11,3.11,2,1.13,4.52,1.13,6.79,2,5.09,2,10.18,3.67,15.55,3.11a12.62,12.62,0,0,1,2.83-.57,11.3,11.3,0,0,0,5.37-.85c3.11-1.41,6.23-2.54,9.34-4.24,4.81-2.83,9.05-6.22,11.31-11.59a8,8,0,0,1,2.26-3.12,5,5,0,0,0,1.14-2.54c0-2.26,2.54-4.53.56-6.79,0-.28.28-.56.28-.85,2.27-5.65,3.11-11.59,3.68-17.53.28-5.66,1.13-11.32,1.7-17C124.09,150.23,124.38,146.55,124.66,142.88ZM24.25,109.5c-1.13.85-1.41,3.11-3.39,1.42-1.7-.85-.85-3.12-.57-3.4C22,106.67,22.55,108.94,24.25,109.5ZM177,83.76a88,88,0,0,0-.84-14.7c-1.14-6.23-.85-12.73-2.27-19a77.38,77.38,0,0,0-4-13.86,41.09,41.09,0,0,1-2.26-5.09c-1.7-4.53-4.81-8.49-7.92-11.88s-7.35-5.94-11.31-7.92c-5.94-3.11-11.32-6.79-18.1-7.64-3.12-.57-6.23-1.7-9.62-.85a7.93,7.93,0,0,1-2.55.28c-7.07-.56-13.57,1.14-19.8,2.83-5.09,1.7-10.18,2.83-15,4.25A9.45,9.45,0,0,0,80,11.92c-.85.57-1.13,1.13.28,2,1.13.57.85,1.42,0,2.26-.85.57-1.13-.28-2-.56-1.41-.57-2.82-2-4.52-1.42a6.25,6.25,0,0,1-2.26-.28c-5.1-1.7-10.19-2.83-15.84-2.26-2.83.28-5.38,1.41-8.21,2.26C41.5,15,37.26,18.71,33.3,23c-1.69,2.27-3.11,4.53-4.52,6.79a30.71,30.71,0,0,0-5.09,8.2A47.18,47.18,0,0,0,22,48.69c.28,3.4.28,6.79.85,10.18a22.32,22.32,0,0,0,2.26,8.49c3.11,5.37,6.22,11,9.62,16.4A160.6,160.6,0,0,0,47.44,101c3.12,3.67,7.36,5.65,12.17,6.5a5.64,5.64,0,0,0-1.7-3.11A43.89,43.89,0,0,1,52,97.9c-3.39-5.65-4.53-12.16-5.66-18.66-.56-1.42.57-2,1.7-2,.85-.28,1.13.85,1.13,1.69.28.85.28,1.7.85,2.27,3.68,4.24,6.22,9.61,10.46,13.29a29.88,29.88,0,0,0,8.21,4.81,4.75,4.75,0,0,0-.85-3.4,26.4,26.4,0,0,1-6.22-10.46c-.29-1.41-.29-3.39.84-4,1.42-1.13,2.83.28,3.68,1.41a15.4,15.4,0,0,1,2.83,3.4c2.83,4.81,7.35,7.07,12.16,9a22.37,22.37,0,0,0-4.52-5.66c-.29-.28-1.13-.28-.57-1.13.57-.56,0-2.26,1.13-2.26A3.11,3.11,0,0,1,80,88a17.77,17.77,0,0,0,2.55,3.39c2.82,3.68,6.5,5.94,10.18,8.48a35,35,0,0,0,9.33,4.25c.57.28.85,1.13,1.42.56s-.29-1.13-.85-1.69c-2-1.42-4-2.83-5.94-4.53-2.27-2-4.81-4.24-7.07-6.5a17.13,17.13,0,0,1-4.81-8.21c0-.28-.85-1.13.28-1.41.85,0,1.7-.57,2.26.28a4.61,4.61,0,0,1,.57,1.42A18.18,18.18,0,0,0,93,91.68c3.68,3.11,7.07,6.22,11,9a29.76,29.76,0,0,0,11.32,4.53c1.41.28,3.39.85,3.67-.28.57-.85-1.69-1.7-2.83-2.27a17.61,17.61,0,0,1-5.09-4,1.58,1.58,0,0,1,0-2.54,1.36,1.36,0,0,1,2,.28,4.85,4.85,0,0,0,1.42,1.13C118.72,99.6,123,99,127.2,99c1.42-.29,3.12-.29,4.81-1.42.57-.28.85-.85,0-1.13-2.83-1.13-5.37-3.39-7.92-5.37-.85-.85-2.54-1.7-2-2.83.57-1.7,2.27-.57,3.68-.28a12.38,12.38,0,0,0,1.41.28c1.7.28,3.4.56,5.1-.85.28-.28.84-.57.56-1.13-1.13-1.42-1.41-3.4-2.54-4.81-1.14-2.26-3.4-4-5.1-5.94-.84-1.13-1.69-2.54-3.39-3.11-2.26-.85-3.68-3.11-6.22-4-.57-.28-.57-.85-.28-1.41s.56-.85,1.13-.57c1.41.57,3.11.57,4,1.41,2.26,2.27,5.37,3.4,7.35,6.23A8.09,8.09,0,0,0,130,77.26c2.55,1.69,4,4.24,5.09,6.79a5.35,5.35,0,0,1-3.39,7.35c-.57,0-1.7-.28-2.26.85,2.26.56,3.67,2.54,5.94,3.11,1.41.56,1.41,2,.56,3.11a7.19,7.19,0,0,1-3.39,2.26c-.57.29-2-.28-2.26.85,0,1.13,1.13,1.13,1.69,2,.29.57,2,.85,1.42,1.7-.85,1.13-2.27.56-3.4,0a1.89,1.89,0,0,1-1.13-1.42c-.28-2.54-2.26-2-3.68-2a13.41,13.41,0,0,1-3.39.29,1.06,1.06,0,0,0,.28.85c.57.84,1.42,2,.29,3.39s-2.27,2.26-4,1.7a12.4,12.4,0,0,0-3.11-.29c-2.27-.28-2.55.29-2,2.27.84,3.11,3.39,4.8,4.8,7.35.85,1.13,2.55,1.13,4,.85s.57-1.13.85-1.7a1.43,1.43,0,0,1,2-1.13c2.83,1.7,5.38.85,8.2,0,4-.85,7.92-1.7,12.17-2.83.84,0,2,.28,1.13,1.42-1.42,1.69-1.13,3.67-1.7,5.37a36.3,36.3,0,0,1-4.53,12.45c-2.82,4.52-5.94,8.2-11.59,8.48-.85,0-1.42.28-1.13,1.41.28,2.83-.29,5.66-.57,8.21-.28,5.37-2,10.46-2,15.84,0,.84-.56,1.41.28,2.54,1.14-1.41,2.27-2.54,2.55-4.24.28-2.83,1.7-5.38,1.41-8.49l.29-1.13c.28-.85.85-1.41,1.69-1.13a1.45,1.45,0,0,1,1.14,1.41,6.18,6.18,0,0,0,.56,3.12c0-1.7,1.13-2.83,1.7-4.53.28-1.13,1.13-1.41,2.26-.85a1.61,1.61,0,0,1,.57,2.55c-1.42,1.41-1.13,3.11-.85,5.37,1.13-1.7,1.69-3.11,2.83-4.24a21.86,21.86,0,0,0,4.52-6.79c1.42-2.83,1.7-6.22,4-8.48,2-2,1.41-4.25,1.41-6.23-.56-.28-.84.29-1.13.29-.56.85-1.13,2.26-2.54,1.41a2.45,2.45,0,0,1-1.13-3.11c0-3.11.85-5.94,1.41-8.77.28-.85.28-2.26,1.7-1.7,1.13.29,1.13,1.42.85,2.55a17.65,17.65,0,0,0-.85,5.37c1.13,0,1.13-.84,1.69-1.13,1.42-1.41,1.42-4,3.12-5.37.56-.85,1.41-1.42,2.26-.85a1.57,1.57,0,0,1,.57,2.26,48.61,48.61,0,0,0-2.83,8.49c-.85,2-.29,4.24-.57,6.5,2.55-1.69,2.83-4.24,4.24-6.22,1.7-2.54,2.55-5.94,3.68-9,.28-.57.85-1.41,1.41-1.41a1.55,1.55,0,0,1,1.7,1.13c0,2.54-.85,4.81-1.41,7.07-.29,1.41-.85,2.54-1.42,4.52a11.22,11.22,0,0,0,2.55-4.24c3.39-5.66,5.94-11.6,5.66-18.38,0-1.42-.57-3.11,1.69-3.68.57,0,.85-1.7,2-.85,1.13.57,1.13,1.7.85,2.83,0,2.26-.28,4.81.57,7.35.28-.28.56-.56.56-.85a72,72,0,0,0,1.7-11.31,1,1,0,0,0-.28-.56c-1.7-.85-.57-2-.57-2.83a13.79,13.79,0,0,0,1.13-3.68A164.13,164.13,0,0,0,177,83.76ZM71.2,144.29a58.66,58.66,0,0,1,0,14.14c-.56,3.11-2,5.66-2,8.77,0,1.7-1.41,3.11-2.26,4.53a14.09,14.09,0,0,1-8.2,6.78c-3.4.57-6.51,1.7-9.62.29l-4-1.42a15.91,15.91,0,0,1-7.92-5.65c-4.52-5.66-8.77-11.32-9-18.67-.28-1.7-.85-3.11-1.13-4.81,0-.85.28-1.13,1.13-1.41,5.38-1.42,10.75-3.12,16.41-4a75.92,75.92,0,0,1,11.31-1.14c3.11,0,6.22-.28,9.33-.28,1.7,0,3.4.85,5.09,1.42C71.2,143.16,70.92,143.72,71.2,144.29ZM31,140.9c0-1.14.85-1.7,1.41-2.55.29-.28.85-.57,1.14,0,2,2,2.26-.57,2.54-1.41.57-1.13,1.13-1.7,2.26-1.7,1.42.57.29,2,1.13,3.11L40.94,135c1.41-.85,2,0,2,1.13l-.85,4.81c-.28.56-.57.84-1.13.84a1.82,1.82,0,0,1-1.42-1.41c0-.57.29-1.13-.28-1.41-.85,0-1.13.56-1.41,1.13-.29,1.41-1.13,1.69-2.55,1.13-.85,0-1.69-.28-2.54.85-.29.85-1.42.56-2,.28C29.91,142,31,141.46,31,140.9Zm3.39-74.39c0,.57.29,1.7-.84,1.7-.57.28-2.55-2-2.55-2.55s.28-.85,1.13-.85A2.37,2.37,0,0,1,34.43,66.51Zm2.83-7.35c-.85.28-1.13-.57-1.13-1.42a29.92,29.92,0,0,1-2-11.88c.57-2-.28-5.09,1.13-7.92.57-.56.85-1.69,1.7-1.41s.85,1.41.56,2c-1.41,4.52-.84,9.05-.28,13.29a16.74,16.74,0,0,0,1.13,5.38C38.39,58.31,38.39,59.16,37.26,59.16Zm3.68,91.07c1.7.28,3.39-.57,4.81-.57a21,21,0,0,0,14.42-5.09c-9.05-.56-17.53,1.7-26,3.68C35.85,150.51,38.68,150,40.94,150.23ZM37.83,127.6c-1.42-1.69-2.83-3.67-2.55-6.5a51.68,51.68,0,0,1,2.26-14.71c.29-1.41.85-2.83,2.55-3.11,1.13,2.83,0,5.66-1.13,7.92s-.57,4.52-.85,6.79c0,2-.28,3.67.28,5.65a10.24,10.24,0,0,0,3.11,3.68c.57.57,1.7.85,2,.57,2-1.42,4.53-.57,6.23-2.27,2.26,0,1.41,1.42.56,2.27-1.69,2-3.67,2.54-6.5,2.82A6.66,6.66,0,0,1,37.83,127.6Zm3.39-53.74c.28.57.57.85,0,1.42a1.27,1.27,0,0,1-1.41,0c-1.13-.28-3.11-5.66-2.27-6.79,0-.28.29-.57.85-.57.57.29.85.57.85,1.14A24.64,24.64,0,0,0,41.22,73.86ZM63,171.44l-2.55.85c-4.24,1.41-8.76,2.55-13.57,1.13-1.42-.28-2.26-1.69-4-1.41-.57-.85-1.42-1.7,0-2.55.85-.56,0-.85-.28-1.13-1.42-.56-2,.28-2.83.85-1.13,1.13.28,1.13.56,1.7a8.92,8.92,0,0,0,2.55,2c.56,1.69,2.26,1.13,3.11,1.69,4,2.55,8.2,2.55,12.44,1.13C61.87,174.55,62.72,173.42,63,171.44ZM44.33,53.78c0,.28.57.57.57,1.13-.28.29-.28.85-.85.85-.28.57-.85,0-1.13-.28a49.67,49.67,0,0,0-3.11-5.09,1.11,1.11,0,0,1,.85-1.7c.84-.56,1.13.28,1.13.85C42.07,51.52,44.05,52.09,44.33,53.78Zm.57,134.35a5.67,5.67,0,0,1-.85,3.11c-.28.85-1.13.85-2,.57s0-.85,0-1.13c-.28-1.42,1.13-2,1.41-3.12C44.62,186.72,44.33,187.85,44.9,188.13Zm76.36,5.37c-.84,3.11-1.69,5.94-4,8.49a7.06,7.06,0,0,0-1.14,2c-1.41,2.54-2.54,5.09-4.8,6.79a40.83,40.83,0,0,1-10.47,6.5c-7.35,3.68-15.27,5.66-23.47,4a63.53,63.53,0,0,1-12.45-4c-1.13-.28-2.83.28-4-.85-1.7-2.26-4.24-3.67-6.22-5.37-1.13-.85-3.11-1.13-4-.57A19.38,19.38,0,0,0,45.75,215a2.3,2.3,0,0,0,0,3.39c3.67,2.83,7.07,6.23,11.88,7.64a10.19,10.19,0,0,0,3.11,1.41c.28-.28.56-.28.56.29l.85.28a.4.4,0,0,1,.57,0c7.07,2,14.42,3.39,21.78,2.83,3.39-.28,6.78-.57,10.18-1.13,3.39-.85,6.79-.85,9.61-2.55,2.83-2,5.94-4,9.06-5.94a38.68,38.68,0,0,0,12.72-15.84,5.41,5.41,0,0,0,2-6.79c-1.41-2-3.39-3.39-4.81-5.37C122.68,192.37,121.83,192.09,121.26,193.5ZM51.4,191c-.56.28-.84.56-1.41.28-.85,0-.57-.85-.28-1.13.56-2-1.7-2.55-1.7-4.24l.85-3.11c2.54,0,2.54,0,2,2.54-.28.85-.57,1.42.56,2.26C52.82,188.41,52.25,189.83,51.4,191ZM52,133.83c0,1.69.85,3.11,0,4.52h-.85c-.28,0-.28,0-.56-.57-1.42-.84-1.14-2.26-.85-3.67A1.47,1.47,0,0,1,52,133.83ZM60.45,17c.29.29-.28.57-.28.85l-6.5,2.55c-.57-.29-1.13-.29-1.13-1.13,0-.57-.29-.85.56-1.14,2-.84,4.24-.56,6.22-1.69C59.61,16.16,60.17,16.45,60.45,17ZM57.34,185c0,1.41-1.13,2.26-.85,3.68a8.36,8.36,0,0,1-.56,2.54c-.28.85-.57,1.7-1.7,1.42-1.41-.57-1.13-2-.85-2.83.85-2,2.27-4,1.13-6.51,0-.28.57-.56.57-.56,1.41-.57,2,.56,2.26,1.41C57.91,184.45,57.91,184.74,57.34,185ZM59.61,21.54c0,.85-.29.85-.85,1.13-1.7.28-2.83.57-4,2-.29.57-.57.28-1.13.28-.29-.28-.29-.56-.29-1.13.29-1.13,3.11-3.39,4.25-3.39A1.9,1.9,0,0,1,59.61,21.54ZM53.67,134.11c1.41-2,2-2,2.82,0,.29,1.13,2.55,2.83-.56,3.39C54.23,136.94,54.8,135,53.67,134.11Zm6.5,60.24c0,.57.85,1.7-.85,1.7-1.41-.28-1.41-1.7-1.69-2.55,0-.56.28-1.69,1.41-1.41S60.45,193.22,60.17,194.35Zm-1.41-59.68c0-.84.85-.56,1.41-1.13.57,1.13,2,1.13,2.55,2.55-.57,0-.57,1.41-1.42,1.13A3.33,3.33,0,0,1,58.76,134.67Zm4.81,55.16c.28,1.13.28,3.11-1.14,3.11-1.69,0-1.69-2-2-3.4.29-.56-.56-1.13.57-1.69.57-.29,1.13.28,1.7.85A4,4,0,0,1,63.57,189.83ZM70.92,59.16c-.28.56-.85.28-1.13.28a2.54,2.54,0,0,1-2-.85,14.88,14.88,0,0,1-3.4-4c-.56-.85-.84-2,.29-2.54,1.13-.85,1.41.28,1.69,1.13.57,2.26,2.83,3.11,4,4.8C70.92,58.31,71.2,58.59,70.92,59.16ZM67,194.07c0,.57,0,1.41-.85,1.13a1.79,1.79,0,0,1-2-2c0-.56,0-1.41.85-1.13S67.24,192.66,67,194.07Zm9.33-5.94a3.76,3.76,0,0,1,.85,1.13c-2.83,1.13-.28,3.68-1.41,5.38-.28.56-1.13.56-1.7,0a2.17,2.17,0,0,1-.56-2.82c.28-.57,1.69-1.13.56-2.27C74,188.13,74.88,187.28,76.29,188.13Zm1.7-127c-.28.28-.28,1.13-.85.56-1.41-1.13-3.11-2.54-3.39-4.52-.28-.29,0-.85.56-.85.57-.29,1.14-.29,1.42.28a9.29,9.29,0,0,0,2,3.68C78,60.29,78,60.85,78,61.14Zm1.41,46.38c.57.85-.56,1.42-1.13,1.13-1.13,0-2.54-.85-2.26-2,.28-.85.28-2.54,1.42-2.54C78.84,104.13,79.12,105.82,79.4,107.52Zm3.68,76.65c.28.28.85.85.85,1.13a15.17,15.17,0,0,1-1.41,5.38c-.29.84-1.7,0-2-1.14-.29-.56,0-1.41-.57-1.69,0-1.42.85-2.27.57-3.68-.29-.85.56-.85,1.41-.85A3.94,3.94,0,0,0,83.08,184.17Zm1.42-44.69c.56.85-.29,1.42-.57,2s-.57.28-.85,0a21,21,0,0,0-2.54-2c-.29,0-.57-.56-.29-1.13.29-1.13,1.42-.57,2-1.41A6.44,6.44,0,0,1,84.5,139.48Zm4.8,42.71c0,.57-.56,1.13-1.13.85-1.41-.28-2.83-.85-2.54-2.55,0-.56,0-1.13.85-.85C88.46,179.36,88.46,181.06,89.3,182.19Zm11-162.35a12.6,12.6,0,0,0-6.5,2c-1.13.57-2,.28-2.26-.56-.57-1.14.56-1.14,1.13-1.42a21.78,21.78,0,0,1,7.35-2,1.6,1.6,0,0,1,2,1.7C102,20.69,100.9,20.12,100.33,19.84ZM94.68,177.38a1.28,1.28,0,0,1-1.13,1.7,1.55,1.55,0,0,1-1.42-2c0-.57,0-1.7,1.13-1.7C94.11,175.68,95,176.25,94.68,177.38ZM108.82,63.12c-.28,1.13-1.41.28-2,0a1,1,0,0,1-.85-.29c-4.52-3.39-9-6.79-11.31-12.44-.57-1.7-.29-2.55,1.13-2.55a13,13,0,0,1,1.7,2c1.41,4.24,4.52,6.79,7.63,9.62a4.58,4.58,0,0,0,2.55,1.41C108.82,61.42,109.39,62.27,108.82,63.12Zm-9-37.62-4,.85a1,1,0,0,1-1.13-1.13c-.29-.85.56-1.14,1.41-1.42,1.13-.28,2.26.28,3.4-.28.28,0,1.13-.28,1.13.56A1,1,0,0,1,99.77,25.5Zm5.66,44.12c-.29,1.13-1.14,1.13-1.7.57l-5.94-4.25c-.85-.84-.28-1.69.56-2C99.2,64,105.43,68.77,105.43,69.62ZM98.64,32.85c2-2,6.22-1.69,7.92.57.28.28,1.13,1.13.56,1.69a2.7,2.7,0,0,1-2.54-.28C102.88,33.42,100.05,32.57,98.64,32.85ZM104,76.41a3.8,3.8,0,0,1-1.13.85c-.28,0-1.13.28-1.41-.28a6.7,6.7,0,0,0-2.27-2.55.87.87,0,0,1,0-1.13c.29-.28.57-.57.85-.57C100.9,72.73,104,75.84,104,76.41Zm1.13,85.42c0,.56-.56.84-1.13.84a1.8,1.8,0,0,1-1.7-1.41c0-.85.57-1.13,1.14-1.41C104,160.69,105.14,160.69,105.14,161.83Zm2.27-9.06,1.69,2c0,.57-.28.85-.56.85-.57,0-1.42.29-1.7-.28-.28-.85-2-.57-1.7-2a2,2,0,0,1,.85-1.7C106.84,151.36,107.12,152.21,107.41,152.77Zm3.67-4.52c-1.41-.57-2-2-2.83-3.11.29-1.42,1.42-1.42,2-.57C111.37,145.42,112.78,146.55,111.08,148.25ZM122.4,7.4c.28.28.56.28.56.85a.6.6,0,0,1-.56.56c-3.4-.28-6.51,1.42-9.9,2h-.85c-.85,0-1.7.28-1.7-.28-.28-.85.57-1.13,1.13-1.13,3.11-.85,6.23-1.7,9-2.27a5.43,5.43,0,0,1,2.27.29Zm0,56.56c.28,1.14,0,1.42-1.42.85s-1.7-1.69-2.54-2.54c-.29-.57,0-.85.56-1.13C120.13,61.14,122.4,62.83,122.4,64Zm-1.7,139.16c.28-.28.85-.85,1.41-.57a1.3,1.3,0,0,1,1.13,1.42v2.54a1,1,0,0,1-.84.29C121.55,205.67,119,205.67,120.7,203.12Zm11.88-90.79c0,.85-.85.28-1.42.56-1.69,0-4.8-3.39-4.24-4.8a1.12,1.12,0,0,1,.57-1.13c.28,0,.56.28.85.56.84,1.13,1.13,2.83,3.39,2.26C132,109.78,132.58,111.2,132.58,112.33Zm14.71-64.49c.28.57,0,1.42-.57,1.42-.28-.57-1.13-.85-1.41-1.42l-4.25-5.37a8.68,8.68,0,0,0-3.67-2.55c-.57-.28-1.13-1.13-.85-1.69s1.13-.57,1.69-.29A20.54,20.54,0,0,1,147.29,47.84Zm-8.21,61.94c0,.85-.28,1.14-.85.85-.84-.28-1.69-.56-1.69-1.69a.75.75,0,0,1,.85-.85A3.31,3.31,0,0,1,139.08,109.78Zm7.36-54.3c-1.13,2.83-1.13,2.83-2.83,1.41-1.7-1.69-2.83-3.67-5.09-4.8a1.25,1.25,0,0,1-.29-1.42c.85-.56,1.42-.56,2,.28,1.42,1.42,3.12,2.55,4.25,4.53C145,56.33,145.31,56.33,146.44,55.48Zm-4,51.76c-.29.85-.57.85-1.42.85-1.69-.57-2-2-2.54-3.11-.57-.85.56-1.14,1.13-.85C141.35,104.41,141.63,106.11,142.48,107.24ZM160,97.06a45.7,45.7,0,0,1,1.42,5.94v.56c-.57.57,0,2-1.13,2-.85,0-.85-1.41-.85-2a29,29,0,0,0-1.7-7.07,20.21,20.21,0,0,0-2-2.55c0-.56-.28-1.13,0-1.41.57-.56.85,0,1.41.28A8.62,8.62,0,0,1,160,97.06ZM166,38.51c0,.85-.28,1.13-.56,1.13-.57.28-.85.57-1.13,0A14.71,14.71,0,0,1,159.45,32c-.29-.56,0-.84.28-.84.85-.57,1.13,0,1.41.56A26.56,26.56,0,0,1,164,36.53C164.26,37.66,166,37.38,166,38.51ZM163.41,51l-1.7-4.24a1,1,0,0,1,.57-1.41.75.75,0,0,1,.84.85,24,24,0,0,1,1.42,4.24c0,.28,0,.85-.28.85A1,1,0,0,1,163.41,51Zm1.41,42.15c.57.56.57,1.41.85,2.82-.28.29-.28.85-.57,1.42s-.84.85-1.13-.28c-.28-.85-.85-2-1.13-3.12,0-.84-.28-1.41.57-1.69S164.54,92.53,164.82,93.1Zm7.64-29.7c0,.28.28.56,0,.85h-.85c-.57-1.13-2-1.7-2-3.68A6.85,6.85,0,0,1,172.46,63.4Z"/></g></g></svg>